<svg xmlns="http://www.w3.org/2000/svg" viewBox="0 0 512 512">
  <defs>
    <linearGradient id="g13-grad" x1="0%" y1="0%" x2="100%" y2="100%">
      <stop offset="0%" style="stop-color:#00ff88"/>
      <stop offset="100%" style="stop-color:#00aa55"/>
    </linearGradient>
    <linearGradient id="lcd-grad" x1="0%" y1="0%" x2="0%" y2="100%">
      <stop offset="0%" style="stop-color:#1a1a2e"/>
      <stop offset="100%" style="stop-color:#0f0f1a"/>
    </linearGradient>
  </defs>
  <!-- Background -->
  <circle cx="256" cy="256" r="240" fill="#0a0a0f"/>
  <!-- G13 keypad body -->
  <path d="M80 180 Q80 140 120 140 L392 140 Q432 140 432 180 L432 380 Q432 420 392 420 L120 420 Q80 420 80 380 Z"
        fill="#1a1a1a"/>
  <!-- LCD Screen -->
  <rect x="140" y="160" width="232" height="80" rx="8" fill="url(#lcd-grad)"/>
  <text x="256" y="210" font-family="monospace" font-size="28" fill="#00ff88" text-anchor="middle">G13</text>
  <!-- Key grid -->
  <g fill="url(#g13-grad)" opacity="0.9">
    <!-- Row 1 -->
    <rect x="110" y="260" width="40" height="35" rx="4"/>
    <rect x="160" y="260" width="40" height="35" rx="4"/>
    <rect x="210" y="260" width="40" height="35" rx="4"/>
    <rect x="260" y="260" width="40" height="35" rx="4"/>
    <rect x="310" y="260" width="40" height="35" rx="4"/>
    <rect x="360" y="260" width="40" height="35" rx="4"/>
    <!-- Row 2 -->
    <rect x="120" y="305" width="40" height="35" rx="4"/>
    <rect x="170" y="305" width="40" height="35" rx="4"/>
    <rect x="220" y="305" width="40" height="35" rx="4"/>
    <rect x="270" y="305" width="40" height="35" rx="4"/>
    <rect x="320" y="305" width="40" height="35" rx="4"/>
    <!-- Row 3 -->
    <rect x="130" y="350" width="40" height="35" rx="4"/>
    <rect x="180" y="350" width="40" height="35" rx="4"/>
    <rect x="230" y="350" width="40" height="35" rx="4"/>
    <rect x="280" y="350" width="40" height="35" rx="4"/>
    <rect x="330" y="350" width="40" height="35" rx="4"/>
  </g>
  <!-- Thumbstick -->
  <circle cx="400" cy="320" r="30" fill="#2a2a2a"/>
  <circle cx="400" cy="320" r="20" fill="url(#g13-grad)"/>
</svg>
